<svg width="24" height="24" viewBox="0 0 24 24" fill="none" xmlns="http://www.w3.org/2000/svg">
<g clip-path="url(#clip0_252_657)">
<path fill-rule="evenodd" clip-rule="evenodd" d="M20.6667 20.6667H17.1053V14.6008C17.1053 12.9376 16.4733 12.0082 15.157 12.0082C13.7249 12.0082 12.9768 12.9754 12.9768 14.6008V20.6667H9.54451V9.11118H12.9768V10.6677C12.9768 10.6677 14.0087 8.75814 16.4609 8.75814C18.912 8.75814 20.6667 10.2549 20.6667 13.3505V20.6667ZM5.44985 7.59807C4.28075 7.59807 3.3334 6.64328 3.3334 5.46573C3.3334 4.28818 4.28075 3.3334 5.44985 3.3334C6.61894 3.3334 7.56573 4.28818 7.56573 5.46573C7.56573 6.64328 6.61894 7.59807 5.44985 7.59807ZM3.67758 20.6667H7.25653V9.11118H3.67758V20.6667ZM2.66667 24H21.3333C22.8061 24 24 22.8061 24 21.3333V2.66667C24 1.19391 22.8061 0 21.3333 0H2.66667C1.19391 0 0 1.19391 0 2.66667V21.3333C0 22.8061 1.19391 24 2.66667 24Z" fill="white"/>
</g>
<defs>
<clipPath id="clip0_252_657">
<rect width="24" height="24" fill="white"/>
</clipPath>
</defs>
</svg>
