<svg width="32" height="31" viewBox="0 0 32 31" fill="none" xmlns="http://www.w3.org/2000/svg">
<rect width="32" height="31" rx="8" fill="#15161B"/>
<path d="M7.55507 9.3735C7.6232 9.7425 7.77991 10.255 8.0252 10.911C8.28411 11.567 8.5294 12.141 8.76105 12.633C8.95183 12.961 9.20394 13.494 9.51736 14.232C9.84441 14.9563 10.0761 15.5303 10.2123 15.954C10.2941 16.1727 10.4099 16.446 10.5598 16.774L10.8664 17.512L11.2957 18.4755C11.6909 17.6965 11.977 17.1293 12.1542 16.774L14.4026 12.264C14.8796 11.28 15.1998 10.6445 15.3633 10.3575C15.6223 9.8245 15.8948 9.3325 16.181 8.8815C16.4671 8.41683 16.6715 8.1845 16.7942 8.1845C16.9032 8.1845 16.9577 8.27333 16.9577 8.451C16.9577 8.615 16.9236 8.83367 16.8555 9.107L16.7737 9.6195C16.7192 9.9885 16.692 11.6285 16.692 14.5395C16.692 15.1818 16.6715 15.9608 16.6307 16.8765C16.6034 17.7922 16.5761 18.4003 16.5489 18.701C16.5216 19.0563 16.508 19.5825 16.508 20.2795L16.5285 22.268V22.3705C16.5285 22.5345 16.4876 22.6028 16.4058 22.5755H16.3649C16.2968 22.5755 16.215 22.5823 16.1196 22.596C16.0379 22.6097 15.9493 22.6165 15.8539 22.6165C15.7994 22.6028 15.7585 22.5687 15.7313 22.514C15.7176 22.4593 15.7108 22.3637 15.7108 22.227V21.0175C15.7108 19.6235 15.7245 18.8035 15.7517 18.5575C15.779 18.2705 15.8062 17.7375 15.8335 16.9585C15.8744 16.1795 15.8948 15.5508 15.8948 15.0725C15.8812 14.9495 15.888 14.5668 15.9152 13.9245L15.9766 11.7105C15.8812 11.8472 15.7994 11.9907 15.7313 12.141C15.595 12.3733 15.4655 12.6262 15.3429 12.8995L15.1385 13.3095C14.9068 13.7605 14.6411 14.2935 14.3413 14.9085C14.0415 15.5098 13.7826 16.0223 13.5646 16.446C13.3193 16.938 13.0059 17.5735 12.6243 18.3525C12.2564 19.1178 11.9702 19.726 11.7658 20.177C11.4115 21.0107 11.2071 21.4275 11.1526 21.4275C11.1117 21.4275 11.0504 21.3592 10.9686 21.2225C10.8869 21.0858 10.8324 20.997 10.8051 20.956C10.7097 20.8057 10.5598 20.4913 10.3554 20.013C10.151 19.521 9.98748 19.0905 9.86484 18.7215C9.78308 18.4755 9.42878 17.7853 8.80194 16.651C8.31136 15.708 8.05926 15.216 8.04564 15.175C7.90936 14.9017 7.7254 14.4438 7.49374 13.8015C7.34385 13.4598 7.22802 13.1592 7.14626 12.8995L7.10537 13.8015L7.06449 15.1955L7.02361 19.234L7.00317 22.432C7.00317 22.555 6.9691 22.6302 6.90097 22.6575C6.83283 22.6848 6.75107 22.6985 6.65568 22.6985C6.56029 22.6848 6.48534 22.678 6.43084 22.678L5.98115 22.6985C5.73586 22.7258 5.55871 22.7395 5.44969 22.7395C5.24529 22.7395 5.12264 22.6985 5.08176 22.6165C5.05451 22.5208 5.04769 22.3295 5.06132 22.0425C5.06132 21.5915 5.05451 21.161 5.04088 20.751L5 18.2295C5 17.8468 5.01363 17.4505 5.04088 17.0405C5.06814 16.6168 5.08857 16.241 5.1022 15.913C5.17034 14.929 5.2044 14.2388 5.2044 13.8425L5.24529 9.9885L5.22484 8.8815C5.22484 8.40317 5.25891 8.12983 5.32705 8.0615C5.36793 8.0205 5.41562 8 5.47013 8C5.51101 8 5.57233 8.01367 5.65409 8.041C5.73586 8.06833 5.83806 8.07517 5.9607 8.0615C6.08335 8.04783 6.25369 8.041 6.47172 8.041C6.73063 8.041 6.92141 8.05467 7.04405 8.082C7.1667 8.123 7.25527 8.2255 7.30978 8.3895C7.36429 8.53983 7.41198 8.7175 7.45286 8.9225C7.49374 9.11383 7.52781 9.26417 7.55507 9.3735Z" fill="white"/>
<path d="M22.2803 11.5115C21.9432 11.5603 21.6265 11.7511 21.3305 12.0839C21.0479 12.4147 20.8398 12.9281 20.7064 13.624C20.571 14.3064 20.5777 15.1616 20.7263 16.1896C20.8711 17.1905 21.1281 17.9681 21.4974 18.5223C21.8782 19.061 22.2673 19.419 22.6647 19.5962C23.0756 19.7716 23.4159 19.8397 23.6857 19.8007C23.9284 19.7656 24.1662 19.6484 24.399 19.449C24.6298 19.2361 24.8259 19.0213 24.9873 18.8047C25.0104 18.7737 25.044 18.7205 25.0882 18.6451C25.1458 18.5677 25.2016 18.5251 25.2556 18.5173C25.323 18.5076 25.4078 18.5229 25.5101 18.5633L27.3675 19.2682C27.4254 19.2875 27.5122 19.3164 27.6279 19.3549C27.7551 19.3779 27.8419 19.4068 27.8883 19.4415C27.9481 19.4743 27.9829 19.5245 27.9927 19.5921C28.0024 19.6597 27.993 19.7371 27.9642 19.8241C27.7399 20.3674 27.3489 20.9487 26.7914 21.5679C26.2338 22.1871 25.3953 22.5776 24.2759 22.7395C23.3992 22.8663 22.5094 22.6636 21.6063 22.1313C20.7147 21.5836 19.944 20.7768 19.2942 19.7108C18.6443 18.6449 18.2206 17.4288 18.0231 16.0627C17.8275 14.7101 17.8807 13.4596 18.1828 12.3112C18.4983 11.1609 18.9762 10.2287 19.6165 9.51474C20.2567 8.80074 20.9612 8.38816 21.73 8.27699C22.6875 8.13851 23.4856 8.23022 24.1242 8.55213C24.7744 8.85857 25.254 9.17585 25.563 9.50399C25.6287 9.57735 25.6867 9.64491 25.7369 9.70669C25.8006 9.76652 25.8374 9.83025 25.8472 9.89788C25.8589 9.97904 25.8004 10.098 25.6716 10.2547C25.1216 10.8313 24.7382 11.3218 24.5213 11.726C24.4118 11.9213 24.3167 12.0732 24.236 12.1815C24.1534 12.2763 24.0648 12.3305 23.9704 12.3442C23.876 12.3578 23.7583 12.3058 23.6174 12.1881C23.2892 11.918 23.0353 11.7337 22.8559 11.6354C22.688 11.5216 22.4961 11.4803 22.2803 11.5115Z" fill="white"/>
</svg>
