<svg width="164" height="58" viewBox="0 0 164 58" fill="none" xmlns="http://www.w3.org/2000/svg">
<path d="M46.4726 6.46701C46.5689 6.98901 46.7905 7.71401 47.1373 8.64201C47.5033 9.57001 47.8501 10.382 48.1776 11.078C48.4473 11.542 48.8038 12.296 49.2469 13.34C49.7092 14.3647 50.0368 15.1767 50.2294 15.776C50.345 16.0853 50.5088 16.472 50.7207 16.936L51.1542 17.98L51.761 19.343C52.3198 18.241 52.7243 17.4387 52.9748 16.936L56.1536 10.556C56.8279 9.16401 57.2807 8.26501 57.5119 7.85901C57.8779 7.10501 58.2632 6.40901 58.6678 5.77101C59.0724 5.11368 59.3614 4.78501 59.5348 4.78501C59.6889 4.78501 59.766 4.91068 59.766 5.16201C59.766 5.39401 59.7178 5.70335 59.6215 6.09001L59.5059 6.81501C59.4288 7.33701 59.3903 9.65701 59.3903 13.775C59.3903 14.6837 59.3614 15.7857 59.3036 17.081C59.2651 18.3763 59.2265 19.2367 59.188 19.662C59.1495 20.1647 59.1302 20.909 59.1302 21.895L59.1591 24.708V24.853C59.1591 25.085 59.1013 25.1817 58.9857 25.143H58.9279C58.8316 25.143 58.716 25.1527 58.5811 25.172C58.4655 25.1913 58.3403 25.201 58.2055 25.201C58.1284 25.1817 58.0706 25.1333 58.0321 25.056C58.0128 24.9787 58.0032 24.8433 58.0032 24.65V22.939C58.0032 20.967 58.0224 19.807 58.061 19.459C58.0995 19.053 58.138 18.299 58.1766 17.197C58.2343 16.095 58.2632 15.2057 58.2632 14.529C58.244 14.355 58.2536 13.8137 58.2921 12.905L58.3788 9.77301C58.244 9.96635 58.1284 10.1693 58.0321 10.382C57.8394 10.7107 57.6564 11.0683 57.483 11.455L57.194 12.035C56.8665 12.673 56.4908 13.427 56.0669 14.297C55.6431 15.1477 55.2771 15.8727 54.9688 16.472C54.622 17.168 54.1789 18.067 53.6395 19.169C53.1193 20.2517 52.7147 21.112 52.4257 21.75C51.9248 22.9293 51.6358 23.519 51.5588 23.519C51.501 23.519 51.4143 23.4223 51.2987 23.229C51.1831 23.0357 51.106 22.91 51.0675 22.852C50.9326 22.6393 50.7207 22.1947 50.4317 21.518C50.1427 20.822 49.9115 20.213 49.7381 19.691C49.6225 19.343 49.1216 18.3667 48.2354 16.762C47.5418 15.428 47.1854 14.732 47.1662 14.674C46.9735 14.2873 46.7134 13.6397 46.3859 12.731C46.174 12.2477 46.0102 11.8223 45.8946 11.455L45.8368 12.731L45.779 14.703L45.7212 20.416L45.6923 24.94C45.6923 25.114 45.6442 25.2203 45.5478 25.259C45.4515 25.2977 45.3359 25.317 45.201 25.317C45.0662 25.2977 44.9602 25.288 44.8832 25.288L44.2474 25.317C43.9006 25.3557 43.6502 25.375 43.496 25.375C43.207 25.375 43.0336 25.317 42.9758 25.201C42.9373 25.0657 42.9277 24.795 42.9469 24.389C42.9469 23.751 42.9373 23.142 42.9181 22.562L42.8603 18.995C42.8603 18.4537 42.8795 17.893 42.9181 17.313C42.9566 16.7137 42.9855 16.182 43.0047 15.718C43.1011 14.326 43.1492 13.3497 43.1492 12.789L43.207 7.33701L43.1781 5.77101C43.1781 5.09435 43.2263 4.70768 43.3226 4.61101C43.3804 4.55301 43.4479 4.52401 43.5249 4.52401C43.5827 4.52401 43.6694 4.54335 43.785 4.58201C43.9006 4.62068 44.0451 4.63035 44.2185 4.61101C44.3919 4.59168 44.6327 4.58201 44.941 4.58201C45.307 4.58201 45.5767 4.60135 45.7501 4.64001C45.9235 4.69801 46.0487 4.84301 46.1258 5.07501C46.2029 5.28768 46.2703 5.53901 46.3281 5.82901C46.3859 6.09968 46.4341 6.31235 46.4726 6.46701Z" fill="white"/>
<path d="M80.2003 24.795C80.2966 24.9883 80.3448 25.114 80.3448 25.172C80.3448 25.3267 80.1714 25.404 79.8246 25.404H77.7439C77.6668 25.404 77.5898 25.3363 77.5127 25.201C77.4356 25.0657 77.3682 24.9303 77.3104 24.795C77.2526 24.6597 77.2045 24.5437 77.1659 24.447C77.0696 24.2537 76.8866 23.809 76.6168 23.113C76.3664 22.417 76.1737 21.866 76.0389 21.46C75.9811 21.2667 75.8655 20.9863 75.6921 20.619C75.5187 20.2323 75.3935 19.9617 75.3164 19.807C75.2393 19.575 75.1623 19.4203 75.0852 19.343C75.0274 19.2657 74.9311 19.227 74.7962 19.227C74.6614 19.227 74.488 19.2367 74.2761 19.256C74.0834 19.2753 73.8715 19.2947 73.6403 19.314C73.4862 19.3527 73.0045 19.372 72.1953 19.372C71.6366 19.372 71.0876 19.3913 70.5481 19.43C70.3747 19.4493 70.0665 19.459 69.6234 19.459L68.0917 19.43C67.9954 19.43 67.9183 19.4687 67.8605 19.546C67.822 19.6233 67.7931 19.72 67.7739 19.836C67.7546 19.9327 67.7353 20.01 67.7161 20.068L67.5427 20.793C67.4849 21.0637 67.4078 21.3827 67.3115 21.75C67.2344 22.098 67.167 22.4267 67.1092 22.736L66.7913 23.983L66.5601 24.824C66.5023 25.056 66.4445 25.2107 66.3867 25.288C66.3482 25.346 66.2808 25.375 66.1844 25.375H64.4794C64.3831 25.375 64.3349 25.3363 64.3349 25.259C64.3349 25.2203 64.3734 25.085 64.4505 24.853C64.6046 24.4857 64.7395 24.1183 64.8551 23.751C65.5679 21.3537 65.9918 19.7877 66.1266 19.053C66.3 18.0863 66.6564 16.8393 67.1959 15.312C67.3693 14.6547 67.533 14.0553 67.6872 13.514C67.745 13.2433 67.8317 12.9147 67.9472 12.528C68.3133 11.1747 68.6793 9.90835 69.0454 8.72901L69.7679 6.40901C69.922 5.80968 70.1146 5.19101 70.3458 4.55301C70.4614 4.26301 70.5963 4.19535 70.7504 4.35001C70.866 4.42735 70.9527 4.56268 71.0105 4.75601C71.0683 4.94935 71.1068 5.08468 71.1261 5.16201C71.1839 5.39401 71.6944 6.55401 72.6577 8.64201C73.043 9.43468 73.4573 10.469 73.9004 11.745C74.093 12.3057 74.6228 13.514 75.4898 15.37C75.9329 16.2787 76.2219 16.907 76.3568 17.255C76.665 17.9317 77.4934 19.575 78.842 22.185L79.1888 22.91C79.6319 23.896 79.9691 24.5243 80.2003 24.795ZM72.6288 15.225C72.7637 15.2057 72.8793 15.196 72.9756 15.196C73.0719 15.196 73.149 15.1863 73.2068 15.167C73.2646 15.1477 73.2935 15.1187 73.2935 15.08C73.2935 15.0413 73.2646 14.964 73.2068 14.848C73.1105 14.674 72.8889 14.1907 72.5421 13.398C72.1954 12.586 71.9545 11.977 71.8197 11.571C71.627 11.107 71.4729 10.7203 71.3573 10.411C71.261 10.1017 71.1839 9.88901 71.1261 9.77301C71.0876 9.67635 71.0394 9.57968 70.9816 9.48301C70.9431 9.38635 70.9045 9.30901 70.866 9.25101C70.8275 9.19301 70.7889 9.16401 70.7504 9.16401C70.6926 9.16401 70.6252 9.30901 70.5481 9.59901C70.4903 9.88901 70.4422 10.1113 70.4036 10.266C70.0569 11.3873 69.8064 12.238 69.6523 12.818C69.5752 13.108 69.4596 13.4657 69.3055 13.891C69.1706 14.297 69.0743 14.5773 69.0165 14.732C68.9587 14.9253 68.9298 15.08 68.9298 15.196C68.9298 15.312 69.0165 15.37 69.1899 15.37C69.5945 15.37 70.211 15.3603 71.0394 15.341C71.8871 15.3023 72.4169 15.2637 72.6288 15.225Z" fill="white"/>
<path d="M97.7991 24.186C98.3193 24.708 98.5794 25.0657 98.5794 25.259C98.5794 25.2977 98.5312 25.3653 98.4349 25.462C98.2615 25.578 97.828 25.636 97.1345 25.636C96.6335 25.636 96.3157 25.5973 96.1808 25.52C96.0459 25.462 95.94 25.3557 95.8629 25.201C95.8051 25.0463 95.757 24.9303 95.7184 24.853C95.6606 24.737 95.4198 24.4083 94.996 23.867C94.5914 23.3063 94.2831 22.881 94.0712 22.591C93.0501 21.2763 92.1639 20.0873 91.4125 19.024C90.9501 18.3667 90.0928 17.2357 88.8405 15.631L88.3782 15.051L86.3841 12.557L86.2686 13.717C86.1915 14.297 86.1722 14.993 86.2108 15.805C86.2686 16.3463 86.3071 17.748 86.3264 20.01C86.3456 22.272 86.3552 23.925 86.3552 24.969C86.3552 25.2783 86.2397 25.4717 86.0085 25.549C85.7773 25.6457 85.5076 25.694 85.1993 25.694C85.0644 25.694 84.9777 25.636 84.9392 25.52C84.9007 25.404 84.8718 25.2783 84.8525 25.143C84.8525 25.0077 84.8525 24.9207 84.8525 24.882C84.814 24.5727 84.7947 24.1183 84.7947 23.519C84.7947 23.1323 84.8044 22.8423 84.8236 22.649C84.8429 21.605 84.8718 19.7877 84.9103 17.197C84.9488 14.587 84.9681 12.2477 84.9681 10.179C84.9681 7.95568 84.9392 6.66035 84.8814 6.29301C84.8622 6.13835 84.8525 5.93535 84.8525 5.68401C84.8525 5.39401 84.8911 5.21035 84.9681 5.13301C85.0644 5.05568 85.1993 5.01701 85.3727 5.01701C85.758 5.01701 86.1337 5.02668 86.4997 5.04601L89.6497 5.10401C90.8057 5.10401 92.0098 5.30701 93.262 5.71301C94.5143 6.11901 95.1405 6.87301 95.1405 7.97501C95.1405 9.01901 94.7551 9.83101 93.9845 10.411C93.2139 10.991 92.3469 11.3873 91.3836 11.6C90.4396 11.8127 89.6112 11.919 88.8983 11.919C88.6479 11.919 88.513 11.9093 88.4938 11.89C88.6093 12.006 89.3703 13.0307 90.7767 14.964C95.0152 20.6673 97.356 23.7413 97.7991 24.186ZM86.2975 10.73C86.9332 10.73 87.4149 10.7203 87.7424 10.701C88.8598 10.6623 89.7268 10.585 90.3433 10.469C91.2295 10.3143 91.8942 10.1017 92.3373 9.83101C92.7997 9.56035 93.0308 9.13501 93.0308 8.55501C93.0308 8.16835 92.8286 7.83968 92.424 7.56901C92.0194 7.27901 91.5281 7.06635 90.9501 6.93101C90.3914 6.77635 89.9002 6.69901 89.4763 6.69901C88.9947 6.67968 88.3204 6.67001 87.4534 6.67001H86.4708L86.2975 10.73Z" fill="white"/>
<path d="M104.78 6.00301C104.722 6.42835 104.674 7.52068 104.635 9.28001C104.635 9.82135 104.596 11.194 104.519 13.398C104.442 15.5247 104.404 16.82 104.404 17.284C104.404 18.4053 104.423 19.8263 104.462 21.547C104.5 23.2483 104.539 24.2633 104.577 24.592C104.596 24.708 104.606 24.8433 104.606 24.998C104.606 25.1333 104.577 25.23 104.519 25.288C104.481 25.346 104.413 25.404 104.317 25.462C104.202 25.5393 103.903 25.578 103.421 25.578C103.344 25.578 103.219 25.578 103.046 25.578C102.891 25.578 102.795 25.5587 102.757 25.52C102.718 25.4813 102.699 25.404 102.699 25.288L102.728 24.36L102.785 20.561L102.843 14.471C102.843 13.891 102.882 12.5763 102.959 10.527C102.978 10.0437 103.007 9.26068 103.046 8.17801C103.084 7.07601 103.084 6.42835 103.046 6.23501L103.017 5.62601C103.017 5.12335 103.171 4.87201 103.479 4.87201L104.548 4.90101C104.741 4.90101 104.837 5.03635 104.837 5.30701C104.837 5.40368 104.828 5.51968 104.808 5.65501C104.789 5.77101 104.78 5.88701 104.78 6.00301Z" fill="white"/>
<path d="M122.099 6.40901C122.099 6.85368 122.061 7.07601 121.983 7.07601C121.868 7.07601 121.733 7.06635 121.579 7.04701C121.444 7.00835 121.271 6.98901 121.059 6.98901H116.435L112.851 6.96001C112.736 6.96001 112.302 6.98901 111.551 7.04701L110.886 7.10501L110.829 7.88801C110.809 8.17801 110.8 8.63235 110.8 9.25101C110.8 9.56035 110.819 9.96635 110.857 10.469C110.896 10.933 110.915 11.2713 110.915 11.484V12.644C110.915 12.9533 110.925 13.195 110.944 13.369C111.118 13.3883 111.378 13.398 111.724 13.398H112.88C112.996 13.398 113.227 13.3787 113.574 13.34C114.075 13.3013 114.508 13.282 114.874 13.282C115.029 13.282 115.568 13.311 116.493 13.369L117.129 13.398C117.283 13.398 117.504 13.3883 117.793 13.369C118.082 13.3303 118.362 13.311 118.631 13.311L119.585 13.34C120.086 13.3787 120.433 13.398 120.625 13.398C120.837 13.398 120.982 13.3883 121.059 13.369L121.232 13.34C121.367 13.34 121.463 13.3883 121.521 13.485C121.579 13.5623 121.598 13.6397 121.579 13.717C121.56 13.8523 121.55 14.0263 121.55 14.239C121.55 14.4323 121.54 14.6063 121.521 14.761C121.502 14.9157 121.473 15.0123 121.434 15.051C121.396 15.0703 121.28 15.08 121.088 15.08L119.932 14.964C118.487 14.8287 117.543 14.761 117.1 14.761C115.462 14.761 114.258 14.79 113.487 14.848C113.179 14.8867 112.842 14.906 112.476 14.906C112.11 14.906 111.879 14.906 111.782 14.906C111.416 14.906 111.146 14.8963 110.973 14.877L110.886 15.341C110.848 15.689 110.829 15.9983 110.829 16.269C110.829 16.501 110.848 16.7717 110.886 17.081C110.925 17.3903 110.944 17.661 110.944 17.893L110.973 21.344L110.944 22.794C110.925 22.968 110.915 23.2097 110.915 23.519C111.166 23.5383 111.532 23.548 112.013 23.548C112.418 23.5673 113.044 23.577 113.892 23.577L115.452 23.606C115.78 23.6253 116.281 23.635 116.955 23.635C117.36 23.635 117.89 23.6157 118.545 23.577L119.758 23.548C120.221 23.548 120.606 23.5577 120.914 23.577C121.222 23.5963 121.454 23.606 121.608 23.606C121.762 23.606 121.849 23.635 121.868 23.693C121.906 23.751 121.926 23.8767 121.926 24.07C121.926 24.2053 121.916 24.3503 121.897 24.505C121.878 24.6403 121.868 24.795 121.868 24.969C121.868 25.1043 121.82 25.201 121.723 25.259C121.627 25.2977 121.473 25.317 121.261 25.317C121.049 25.317 120.876 25.3073 120.741 25.288C120.221 25.23 119.171 25.201 117.591 25.201C116.628 25.201 115.934 25.2107 115.51 25.23C115.183 25.2493 114.643 25.259 113.892 25.259L111.204 25.23C110.896 25.2107 110.53 25.201 110.106 25.201C109.836 25.201 109.653 25.172 109.557 25.114C109.48 25.0367 109.441 24.9207 109.441 24.766L109.47 24.302C109.49 24.2247 109.499 24.1377 109.499 24.041C109.499 23.983 109.49 23.8477 109.47 23.635C109.451 23.403 109.441 22.9873 109.441 22.388C109.441 21.808 109.422 20.8607 109.384 19.546C109.326 18.4633 109.297 17.4193 109.297 16.414C109.297 15.9887 109.345 14.761 109.441 12.731C109.461 12.325 109.48 11.919 109.499 11.513C109.519 11.107 109.528 10.7397 109.528 10.411C109.528 8.16835 109.499 6.68935 109.441 5.97401C109.384 5.51001 109.663 5.27801 110.28 5.27801C110.434 5.27801 110.684 5.29735 111.031 5.33601C111.339 5.37468 111.57 5.39401 111.724 5.39401L113.545 5.33601C114.855 5.25868 115.867 5.22001 116.579 5.22001C117.408 5.22001 118.573 5.23935 120.076 5.27801C120.558 5.29735 121.068 5.30701 121.608 5.30701C121.839 5.30701 121.983 5.36501 122.041 5.48101C122.099 5.59701 122.118 5.72268 122.099 5.85801C122.099 5.97401 122.099 6.05135 122.099 6.09001V6.40901Z" fill="white"/>
<path d="M7.94625 34.974C7.4646 34.974 6.98296 35.177 6.50131 35.583C6.03893 35.989 5.64398 36.6657 5.31647 37.613C4.98895 38.541 4.82519 39.7397 4.82519 41.209C4.82519 42.6397 5.02748 43.7803 5.43206 44.631C5.85591 45.4623 6.32792 46.0423 6.8481 46.371C7.38754 46.6997 7.84992 46.864 8.23523 46.864C8.58202 46.864 8.93843 46.748 9.30448 46.516C9.67053 46.2647 9.98842 46.0037 10.2581 45.733C10.2967 45.6943 10.3545 45.6267 10.4315 45.53C10.5279 45.4333 10.6146 45.385 10.6916 45.385C10.7879 45.385 10.9035 45.4237 11.0384 45.501L13.4948 46.864C13.5719 46.9027 13.6874 46.9607 13.8416 47.038C14.015 47.096 14.1306 47.154 14.1884 47.212C14.2654 47.27 14.304 47.3473 14.304 47.444C14.304 47.5407 14.2751 47.647 14.2173 47.763C13.7934 48.4783 13.1287 49.213 12.2233 49.967C11.3178 50.721 10.0655 51.098 8.46642 51.098C7.21415 51.098 6.01003 50.634 4.85409 49.706C3.71741 48.7587 2.80228 47.473 2.10871 45.849C1.41514 44.225 1.06836 42.4367 1.06836 40.484C1.06836 38.5507 1.39588 36.8107 2.05091 35.264C2.72522 33.7173 3.58254 32.509 4.6229 31.639C5.66325 30.769 6.7325 30.334 7.83065 30.334C9.19852 30.334 10.2967 30.624 11.1251 31.204C11.9728 31.7647 12.5797 32.306 12.9457 32.828C13.0228 32.944 13.0902 33.0503 13.148 33.147C13.2251 33.2437 13.2636 33.3403 13.2636 33.437C13.2636 33.553 13.1576 33.7077 12.9457 33.901C12.0595 34.597 11.4237 35.206 11.0384 35.728C10.8457 35.9793 10.682 36.1727 10.5471 36.308C10.4123 36.424 10.2774 36.482 10.1425 36.482C10.0077 36.482 9.85356 36.3853 9.68017 36.192C9.27558 35.7473 8.9577 35.438 8.72651 35.264C8.51459 35.0707 8.2545 34.974 7.94625 34.974Z" fill="white"/>
<path d="M26.1039 38.309C26.5085 38.309 26.8841 38.2897 27.2309 38.251C27.3465 38.2317 27.5295 38.222 27.78 38.222C28.0497 38.222 28.252 38.2317 28.3869 38.251L29.0515 38.309L29.1382 37.439L29.2249 36.047L29.2827 33.205L29.3405 30.972C29.3598 30.682 29.3983 30.4887 29.4561 30.392C29.5139 30.2953 29.6488 30.2373 29.8607 30.218C30.0534 30.218 30.5928 30.16 31.479 30.044C31.6332 30.0247 31.9125 30.015 32.3171 30.015C32.9336 30.015 33.4441 30.044 33.8487 30.102C34.0606 30.1407 34.1859 30.189 34.2244 30.247C34.2822 30.2857 34.3111 30.363 34.3111 30.479C34.3304 30.595 34.3496 30.7013 34.3689 30.798C34.3689 31.1073 34.34 31.6293 34.2822 32.364C34.2051 33.7173 34.1666 34.6453 34.1666 35.148C34.1666 35.3993 34.1088 36.2017 33.9932 37.555C33.8776 39.0243 33.8198 39.9813 33.8198 40.426L33.8776 46.168C33.8776 48.3333 33.9162 49.6577 33.9932 50.141V50.199C33.9932 50.4117 33.9547 50.547 33.8776 50.605C33.8006 50.6437 33.7139 50.663 33.6175 50.663C33.5212 50.6437 33.4538 50.634 33.4152 50.634C33.2611 50.5953 33.0685 50.576 32.8373 50.576C32.7602 50.576 32.5097 50.5953 32.0859 50.634C31.5465 50.692 30.6795 50.721 29.485 50.721H29.4272C29.1575 50.721 29.0226 50.634 29.0226 50.46C29.0226 50.0927 29.013 49.3677 28.9937 48.285C28.9937 47.2023 28.9648 46.4097 28.907 45.907C28.8685 45.1723 28.8492 44.457 28.8492 43.761C28.83 43.471 28.8204 43.0263 28.8204 42.427H27.9823L26.7396 42.456L26.2195 42.485L25.6415 42.456C25.3525 42.456 25.1213 42.4463 24.9479 42.427L24.8612 44.254C24.8034 44.9307 24.7745 45.8103 24.7745 46.893V48.372C24.7745 49.416 24.7938 50.0443 24.8323 50.257C24.8709 50.489 24.8323 50.634 24.7167 50.692C24.6204 50.7307 24.4952 50.75 24.3411 50.75C24.2062 50.75 24.1099 50.75 24.0521 50.75C23.8979 50.7307 23.6379 50.7113 23.2718 50.692C22.9058 50.6533 22.6071 50.634 22.3759 50.634L21.5379 50.692C21.403 50.7113 20.9021 50.75 20.0352 50.808C19.592 50.866 19.3705 50.5953 19.3705 49.996L19.3994 48.865L19.4572 46.777C19.4572 46.3517 19.4668 45.9553 19.4861 45.588L19.515 42.224C19.515 41.4507 19.5053 40.9577 19.4861 40.745C19.4283 40.3003 19.3994 39.7203 19.3994 39.005L19.4283 37.236C19.4475 36.946 19.4572 36.569 19.4572 36.105C19.4572 35.5637 19.515 34.4423 19.6306 32.741L19.7173 30.74C19.7173 30.5853 19.7462 30.479 19.804 30.421C19.8618 30.363 19.9485 30.334 20.0641 30.334L20.4397 30.363C20.6902 30.4017 21.0177 30.4307 21.4223 30.45C21.8269 30.4693 22.2218 30.479 22.6071 30.479L23.9365 30.45C24.1484 30.4307 24.3892 30.421 24.6589 30.421H24.6878C24.842 30.421 24.919 30.5273 24.919 30.74C24.9383 30.7787 24.9479 31.1653 24.9479 31.9C24.9672 32.6153 24.9768 33.466 24.9768 34.452C24.9768 35.0707 24.9576 35.902 24.919 36.946L24.8612 38.28L26.1039 38.309Z" fill="white"/>
<path d="M54.7915 50.17C54.8878 50.3633 54.936 50.489 54.936 50.547C54.936 50.7017 54.7626 50.779 54.4158 50.779H52.3351C52.258 50.779 52.1809 50.7113 52.1039 50.576C52.0268 50.4407 51.9594 50.3053 51.9016 50.17C51.8438 50.0347 51.7956 49.9187 51.7571 49.822C51.6608 49.6287 51.4777 49.184 51.208 48.488C50.9576 47.792 50.7649 47.241 50.63 46.835C50.5722 46.6417 50.4567 46.3613 50.2833 45.994C50.1099 45.6073 49.9846 45.3367 49.9076 45.182C49.8305 44.95 49.7535 44.7953 49.6764 44.718C49.6186 44.6407 49.5223 44.602 49.3874 44.602C49.2525 44.602 49.0792 44.6117 48.8672 44.631C48.6746 44.6503 48.4626 44.6697 48.2315 44.689C48.0773 44.7277 47.5957 44.747 46.7865 44.747C46.2278 44.747 45.6787 44.7663 45.1393 44.805C44.9659 44.8243 44.6577 44.834 44.2145 44.834L42.6829 44.805C42.5866 44.805 42.5095 44.8437 42.4517 44.921C42.4132 44.9983 42.3843 45.095 42.365 45.211C42.3458 45.3077 42.3265 45.385 42.3072 45.443L42.1338 46.168C42.076 46.4387 41.999 46.7577 41.9026 47.125C41.8256 47.473 41.7582 47.8017 41.7004 48.111L41.3825 49.358L41.1513 50.199C41.0935 50.431 41.0357 50.5857 40.9779 50.663C40.9394 50.721 40.8719 50.75 40.7756 50.75H39.0706C38.9742 50.75 38.9261 50.7113 38.9261 50.634C38.9261 50.5953 38.9646 50.46 39.0417 50.228C39.1958 49.8607 39.3307 49.4933 39.4463 49.126C40.1591 46.7287 40.5829 45.1627 40.7178 44.428C40.8912 43.4613 41.2476 42.2143 41.7871 40.687C41.9604 40.0297 42.1242 39.4303 42.2783 38.889C42.3361 38.6183 42.4228 38.2897 42.5384 37.903C42.9045 36.5497 43.2705 35.2833 43.6366 34.104L44.359 31.784C44.5132 31.1847 44.7058 30.566 44.937 29.928C45.0526 29.638 45.1875 29.5703 45.3416 29.725C45.4572 29.8023 45.5439 29.9377 45.6017 30.131C45.6595 30.3243 45.698 30.4597 45.7173 30.537C45.7751 30.769 46.2856 31.929 47.2489 34.017C47.6342 34.8097 48.0484 35.844 48.4915 37.12C48.6842 37.6807 49.214 38.889 50.081 40.745C50.5241 41.6537 50.8131 42.282 50.9479 42.63C51.2562 43.3067 52.0846 44.95 53.4332 47.56L53.78 48.285C54.2231 49.271 54.5603 49.8993 54.7915 50.17ZM47.22 40.6C47.3549 40.5807 47.4705 40.571 47.5668 40.571C47.6631 40.571 47.7402 40.5613 47.798 40.542C47.8558 40.5227 47.8847 40.4937 47.8847 40.455C47.8847 40.4163 47.8558 40.339 47.798 40.223C47.7016 40.049 47.4801 39.5657 47.1333 38.773C46.7865 37.961 46.5457 37.352 46.4108 36.946C46.2182 36.482 46.0641 36.0953 45.9485 35.786C45.8521 35.4767 45.7751 35.264 45.7173 35.148C45.6787 35.0513 45.6306 34.9547 45.5728 34.858C45.5342 34.7613 45.4957 34.684 45.4572 34.626C45.4187 34.568 45.3801 34.539 45.3416 34.539C45.2838 34.539 45.2164 34.684 45.1393 34.974C45.0815 35.264 45.0333 35.4863 44.9948 35.641C44.648 36.7623 44.3976 37.613 44.2434 38.193C44.1664 38.483 44.0508 38.8407 43.8967 39.266C43.7618 39.672 43.6655 39.9523 43.6077 40.107C43.5499 40.3003 43.521 40.455 43.521 40.571C43.521 40.687 43.6077 40.745 43.7811 40.745C44.1856 40.745 44.8021 40.7353 45.6306 40.716C46.4783 40.6773 47.0081 40.6387 47.22 40.6Z" fill="white"/>
<path d="M64.7899 33.466C64.7129 35.0513 64.6744 36.2403 64.6744 37.033L64.7321 41.412C64.7514 42.108 64.761 42.8233 64.761 43.558L64.7033 46.719L64.6744 47.299L64.7033 48.111L64.761 49.126L68.8936 49.271L72.3325 49.3H72.3903C72.5059 49.3 72.5733 49.3193 72.5926 49.358C72.6119 49.3967 72.6119 49.4547 72.5926 49.532C72.5926 49.59 72.5926 49.6383 72.5926 49.677C72.5733 49.7543 72.5733 49.8993 72.5926 50.112C72.6311 50.3247 72.6504 50.518 72.6504 50.692C72.6504 50.8273 72.6022 50.9143 72.5059 50.953C72.4096 50.9917 72.2843 51.0013 72.1302 50.982C71.9954 50.982 71.8894 50.982 71.8123 50.982L70.2807 50.895C68.9321 50.779 67.9784 50.721 67.4197 50.721C66.8032 50.721 65.2427 50.779 62.7381 50.895L60.1084 50.982C59.6845 50.982 59.4726 50.7887 59.4726 50.402V48.14L59.5882 38.425C59.5882 37.6903 59.54 36.3563 59.4437 34.423L59.3281 30.856C59.3281 30.5273 59.4533 30.363 59.7038 30.363C59.8001 30.363 59.9639 30.392 60.1951 30.45C60.4262 30.508 60.6093 30.537 60.7441 30.537C61.2836 30.6143 61.929 30.653 62.6803 30.653C63.2005 30.653 63.6918 30.624 64.1542 30.566C64.4432 30.5273 64.6455 30.5467 64.761 30.624C64.8766 30.7013 64.9344 30.827 64.9344 31.001C64.9344 31.1363 64.9152 31.2813 64.8766 31.436C64.8574 31.5713 64.8477 31.726 64.8477 31.9L64.7899 33.466Z" fill="white"/>
<path d="M89.2213 50.344C89.2791 50.4793 89.308 50.576 89.308 50.634C89.308 50.7113 89.202 50.75 88.9901 50.75H87.3718C87.2947 50.75 87.2273 50.7403 87.1695 50.721C87.131 50.6823 87.0924 50.605 87.0539 50.489C86.9768 50.2763 86.8709 49.9283 86.736 49.445C86.5626 48.9617 86.447 48.5267 86.3892 48.14C86.3314 47.85 86.2351 47.502 86.1002 47.096C85.9846 46.69 85.8787 46.3807 85.7824 46.168C85.609 45.8007 85.4548 45.385 85.32 44.921L85.0599 44.08C84.9636 43.8673 84.8865 43.7417 84.8287 43.703C84.7902 43.645 84.7131 43.616 84.5975 43.616C84.1929 43.616 83.8943 43.6257 83.7017 43.645L82.459 43.703C82.3049 43.7223 81.592 43.732 80.3205 43.732H78.4999C78.3843 43.732 78.2976 43.8383 78.2398 44.051L78.182 44.341L78.0664 44.892C78.0279 44.9887 77.9027 45.5493 77.6907 46.574C77.6329 46.9027 77.5366 47.328 77.4017 47.85C77.3632 48.2367 77.2765 48.5557 77.1417 48.807C77.1031 48.865 77.055 49.0003 76.9972 49.213C76.9394 49.4257 76.8912 49.5997 76.8527 49.735C76.7949 49.8897 76.7274 50.141 76.6504 50.489C76.6311 50.5083 76.6118 50.5567 76.5926 50.634C76.5733 50.692 76.5444 50.7307 76.5059 50.75C76.4674 50.75 76.4096 50.75 76.3325 50.75H75.7545C75.5811 50.75 75.533 50.6243 75.61 50.373C75.61 50.315 75.6197 50.2667 75.6389 50.228C75.6389 50.1893 75.6486 50.141 75.6678 50.083C75.6871 50.025 75.716 49.938 75.7545 49.822L76.0146 48.749C76.0531 48.633 76.1206 48.43 76.2169 48.14C76.3132 47.85 76.3807 47.5793 76.4192 47.328C76.5155 46.864 76.6985 46.1583 76.9683 45.211L77.1995 44.399C77.5655 43.2003 77.7967 42.3593 77.893 41.876L78.2976 40.339C78.4903 39.701 78.6059 39.295 78.6444 39.121C78.7792 38.541 78.9719 37.816 79.2224 36.946L79.4246 36.134L79.598 35.525C79.7907 34.8677 79.9545 34.394 80.0893 34.104C80.1278 33.988 80.2627 33.5917 80.4939 32.915C80.7444 32.219 80.9081 31.668 80.9852 31.262C81.12 30.798 81.2549 30.45 81.3898 30.218C81.5439 29.986 81.7462 29.87 81.9966 29.87C82.093 29.87 82.1893 29.957 82.2856 30.131C82.3819 30.305 82.4783 30.5177 82.5746 30.769C82.6709 31.0203 82.7384 31.204 82.7769 31.32C82.931 31.6873 83.2007 32.6057 83.5861 34.075L83.8173 34.887C83.8365 35.0417 84.1544 35.989 84.7709 37.729L85.32 39.324L85.8402 40.687C86.3796 42.2143 86.7264 43.1423 86.8805 43.471C87.5548 45.5203 87.9498 46.7577 88.0654 47.183C88.2002 47.6857 88.4121 48.314 88.7011 49.068C89.0094 49.822 89.1828 50.2473 89.2213 50.344ZM83.8173 41.731C84.0677 41.731 84.1929 41.6633 84.1929 41.528C84.1929 41.4313 84.1255 41.2187 83.9906 40.89C83.875 40.6 83.7017 40.0587 83.4705 39.266C83.2971 38.628 83.1237 38.077 82.9503 37.613C82.7576 37.033 82.5457 36.3467 82.3145 35.554C82.1026 34.7613 81.9774 34.249 81.9388 34.017C81.6499 32.9923 81.4572 32.48 81.3609 32.48C81.3031 32.48 81.2067 32.741 81.0719 33.263L80.8985 33.901C80.7636 34.423 80.5902 35.0803 80.3783 35.873C80.1664 36.6463 79.9737 37.3037 79.8003 37.845C79.6847 38.3477 79.521 38.9857 79.3091 39.759C79.1164 40.513 78.9623 41.035 78.8467 41.325C78.8081 41.441 78.7889 41.5087 78.7889 41.528C78.7889 41.6633 78.8467 41.7503 78.9623 41.789C79.0971 41.8277 79.2224 41.847 79.338 41.847C79.4728 41.8277 79.5595 41.818 79.598 41.818L81.2742 41.76C81.5054 41.7213 81.8329 41.702 82.2567 41.702L83.8173 41.731Z" fill="white"/>
<path d="M101.845 32.683C101.845 31.4843 101.855 30.74 101.874 30.45C101.874 30.0827 101.999 29.8603 102.25 29.783C102.5 29.7057 102.866 29.667 103.348 29.667C103.772 29.667 104.311 29.6477 104.966 29.609C105.641 29.551 106.161 29.493 106.527 29.435C106.797 29.4157 106.989 29.464 107.105 29.58C107.22 29.6767 107.278 29.8507 107.278 30.102C107.278 30.1793 107.259 30.392 107.22 30.74C107.182 31.03 107.163 32.9537 107.163 36.511V43.065C107.163 44.051 107.172 45.1433 107.192 46.342C107.23 47.5213 107.269 48.5847 107.307 49.532C107.346 50.4793 107.365 50.7403 107.365 50.315C107.365 50.6243 107.211 50.779 106.903 50.779C106.768 50.779 106.652 50.7693 106.556 50.75C106.479 50.7307 106.325 50.721 106.093 50.721C105.862 50.721 105.496 50.7403 104.995 50.779C104.456 50.8177 104.08 50.837 103.868 50.837C103.502 50.837 103.223 50.7597 103.03 50.605C102.857 50.4503 102.674 50.17 102.481 49.764L101.99 48.778C101.412 47.4827 100.901 46.4677 100.458 45.733C100.208 45.3077 99.5719 44.138 98.5508 42.224L97.2793 39.817V41.586C97.2793 41.7407 97.2697 41.934 97.2504 42.166C97.2504 42.398 97.26 42.659 97.2793 42.949C97.2793 43.9543 97.2889 45.269 97.3082 46.893C97.3467 48.517 97.3949 49.4933 97.4527 49.822C97.472 49.9187 97.4816 50.0347 97.4816 50.17C97.4816 50.3633 97.443 50.489 97.366 50.547C97.2889 50.5857 97.1444 50.5953 96.9325 50.576C96.6243 50.576 96.2582 50.5953 95.8344 50.634C95.4298 50.6727 95.0445 50.7113 94.6784 50.75C94.3894 50.7887 94.1968 50.7403 94.1004 50.605C94.0234 50.4697 93.9945 50.17 94.0137 49.706C94.0137 49.01 93.9848 47.7823 93.927 46.023C93.85 44.1863 93.8018 42.5913 93.7826 41.238C93.7826 39.8653 93.8114 38.4733 93.8692 37.062C93.9078 35.2833 93.927 34.0653 93.927 33.408C93.927 32.5187 93.8981 31.871 93.8404 31.465C93.8018 31.117 93.7826 30.8947 93.7826 30.798C93.7826 30.45 93.8404 30.218 93.9559 30.102C94.0715 29.9667 94.2257 29.899 94.4183 29.899C94.5147 29.899 94.7073 29.9087 94.9963 29.928C95.2853 29.928 95.6995 29.8603 96.2389 29.725C96.4509 29.6863 96.6628 29.667 96.8747 29.667C96.9903 29.667 97.1541 29.6767 97.366 29.696C97.5779 29.7153 97.8573 29.725 98.204 29.725C98.6472 29.725 99.0132 29.899 99.3022 30.247C99.6105 30.595 99.938 31.088 100.285 31.726L100.574 32.248C100.805 32.6733 101.084 33.1277 101.412 33.611L101.845 34.278V32.683Z" fill="white"/>
<path d="M118.395 30.45C119.57 30.45 120.822 30.769 122.152 31.407C123.481 32.0257 124.647 33.1663 125.649 34.829C126.65 36.4917 127.151 38.7537 127.151 41.615C127.151 44.225 126.525 46.2067 125.273 47.56C124.04 48.894 122.739 49.7543 121.372 50.141C120.004 50.5083 118.867 50.692 117.961 50.692L115.592 50.721C115.168 50.7403 114.648 50.75 114.031 50.75C113.665 50.75 113.482 50.4213 113.482 49.764L113.511 49.01L113.453 47.56L113.424 46.255L113.395 45.385C113.318 44.3797 113.28 43.239 113.28 41.963C113.28 41.209 113.318 40.2133 113.395 38.976C113.473 37.7387 113.511 36.7237 113.511 35.931L113.482 32.045C113.463 31.7357 113.453 31.3877 113.453 31.001C113.453 30.7883 113.588 30.6627 113.858 30.624C114.147 30.566 114.445 30.5467 114.754 30.566C115.062 30.566 115.274 30.566 115.39 30.566L116.43 30.508C117.239 30.4693 117.894 30.45 118.395 30.45ZM118.453 44.544C118.973 44.2927 119.455 43.9447 119.898 43.5C120.861 42.572 121.343 41.47 121.343 40.194C121.343 38.976 120.88 37.9997 119.955 37.265C119.551 36.9557 119.098 36.7237 118.597 36.569C118.636 36.9943 118.655 37.323 118.655 37.555C118.655 37.9223 118.636 38.454 118.597 39.15C118.559 39.8073 118.539 40.2907 118.539 40.6C118.539 41.1027 118.52 41.9147 118.482 43.036C118.462 43.3647 118.453 43.8673 118.453 44.544Z" fill="white"/>
<path d="M145.362 49.561C145.882 50.083 146.142 50.4407 146.142 50.634C146.142 50.6727 146.094 50.7403 145.997 50.837C145.824 50.953 145.391 51.011 144.697 51.011C144.196 51.011 143.878 50.9723 143.743 50.895C143.609 50.837 143.503 50.7307 143.426 50.576C143.368 50.4213 143.32 50.3053 143.281 50.228C143.223 50.112 142.982 49.7833 142.559 49.242C142.154 48.6813 141.846 48.256 141.634 47.966C140.613 46.6513 139.726 45.4623 138.975 44.399C138.513 43.7417 137.655 42.6107 136.403 41.006L135.941 40.426L133.947 37.932L133.831 39.092C133.754 39.672 133.735 40.368 133.773 41.18C133.831 41.7213 133.87 43.123 133.889 45.385C133.908 47.647 133.918 49.3 133.918 50.344C133.918 50.6533 133.802 50.8467 133.571 50.924C133.34 51.0207 133.07 51.069 132.762 51.069C132.627 51.069 132.54 51.011 132.502 50.895C132.463 50.779 132.434 50.6533 132.415 50.518C132.415 50.3827 132.415 50.2957 132.415 50.257C132.377 49.9477 132.357 49.4933 132.357 48.894C132.357 48.5073 132.367 48.2173 132.386 48.024C132.405 46.98 132.434 45.1627 132.473 42.572C132.511 39.962 132.531 37.6227 132.531 35.554C132.531 33.3307 132.502 32.0353 132.444 31.668C132.425 31.5133 132.415 31.3103 132.415 31.059C132.415 30.769 132.454 30.5853 132.531 30.508C132.627 30.4307 132.762 30.392 132.935 30.392C133.321 30.392 133.696 30.4017 134.062 30.421L137.212 30.479C138.368 30.479 139.572 30.682 140.825 31.088C142.077 31.494 142.703 32.248 142.703 33.35C142.703 34.394 142.318 35.206 141.547 35.786C140.776 36.366 139.91 36.7623 138.946 36.975C138.002 37.1877 137.174 37.294 136.461 37.294C136.21 37.294 136.076 37.2843 136.056 37.265C136.172 37.381 136.933 38.4057 138.339 40.339C142.578 46.0423 144.919 49.1163 145.362 49.561ZM133.86 36.105C134.496 36.105 134.977 36.0953 135.305 36.076C136.422 36.0373 137.289 35.96 137.906 35.844C138.792 35.6893 139.457 35.4767 139.9 35.206C140.362 34.9353 140.593 34.51 140.593 33.93C140.593 33.5433 140.391 33.2147 139.987 32.944C139.582 32.654 139.091 32.4413 138.513 32.306C137.954 32.1513 137.463 32.074 137.039 32.074C136.557 32.0547 135.883 32.045 135.016 32.045H134.033L133.86 36.105Z" fill="white"/>
<path d="M162.919 31.784C162.919 32.2287 162.881 32.451 162.803 32.451C162.688 32.451 162.553 32.4413 162.399 32.422C162.264 32.3833 162.091 32.364 161.879 32.364H157.255L153.671 32.335C153.556 32.335 153.122 32.364 152.371 32.422L151.706 32.48L151.649 33.263C151.629 33.553 151.62 34.0073 151.62 34.626C151.62 34.9353 151.639 35.3413 151.677 35.844C151.716 36.308 151.735 36.6463 151.735 36.859V38.019C151.735 38.3283 151.745 38.57 151.764 38.744C151.938 38.7633 152.198 38.773 152.544 38.773H153.7C153.816 38.773 154.047 38.7537 154.394 38.715C154.895 38.6763 155.328 38.657 155.694 38.657C155.848 38.657 156.388 38.686 157.313 38.744L157.948 38.773C158.103 38.773 158.324 38.7633 158.613 38.744C158.902 38.7053 159.181 38.686 159.451 38.686L160.405 38.715C160.906 38.7537 161.253 38.773 161.445 38.773C161.657 38.773 161.802 38.7633 161.879 38.744L162.052 38.715C162.187 38.715 162.283 38.7633 162.341 38.86C162.399 38.9373 162.418 39.0147 162.399 39.092C162.38 39.2273 162.37 39.4013 162.37 39.614C162.37 39.8073 162.36 39.9813 162.341 40.136C162.322 40.2907 162.293 40.3873 162.254 40.426C162.216 40.4453 162.1 40.455 161.908 40.455L160.752 40.339C159.307 40.2037 158.363 40.136 157.92 40.136C156.282 40.136 155.078 40.165 154.307 40.223C153.999 40.2617 153.662 40.281 153.296 40.281C152.93 40.281 152.699 40.281 152.602 40.281C152.236 40.281 151.966 40.2713 151.793 40.252L151.706 40.716C151.668 41.064 151.649 41.3733 151.649 41.644C151.649 41.876 151.668 42.1467 151.706 42.456C151.745 42.7653 151.764 43.036 151.764 43.268L151.793 46.719L151.764 48.169C151.745 48.343 151.735 48.5847 151.735 48.894C151.986 48.9133 152.352 48.923 152.833 48.923C153.238 48.9423 153.864 48.952 154.712 48.952L156.272 48.981C156.6 49.0003 157.101 49.01 157.775 49.01C158.18 49.01 158.709 48.9907 159.365 48.952L160.578 48.923C161.041 48.923 161.426 48.9327 161.734 48.952C162.042 48.9713 162.274 48.981 162.428 48.981C162.582 48.981 162.669 49.01 162.688 49.068C162.726 49.126 162.746 49.2517 162.746 49.445C162.746 49.5803 162.736 49.7253 162.717 49.88C162.697 50.0153 162.688 50.17 162.688 50.344C162.688 50.4793 162.64 50.576 162.543 50.634C162.447 50.6727 162.293 50.692 162.081 50.692C161.869 50.692 161.696 50.6823 161.561 50.663C161.041 50.605 159.991 50.576 158.411 50.576C157.448 50.576 156.754 50.5857 156.33 50.605C156.003 50.6243 155.463 50.634 154.712 50.634L152.024 50.605C151.716 50.5857 151.35 50.576 150.926 50.576C150.656 50.576 150.473 50.547 150.377 50.489C150.3 50.4117 150.261 50.2957 150.261 50.141L150.29 49.677C150.31 49.5997 150.319 49.5127 150.319 49.416C150.319 49.358 150.31 49.2227 150.29 49.01C150.271 48.778 150.261 48.3623 150.261 47.763C150.261 47.183 150.242 46.2357 150.204 44.921C150.146 43.8383 150.117 42.7943 150.117 41.789C150.117 41.3637 150.165 40.136 150.261 38.106C150.281 37.7 150.3 37.294 150.319 36.888C150.338 36.482 150.348 36.1147 150.348 35.786C150.348 33.5433 150.319 32.0643 150.261 31.349C150.204 30.885 150.483 30.653 151.099 30.653C151.254 30.653 151.504 30.6723 151.851 30.711C152.159 30.7497 152.39 30.769 152.544 30.769L154.365 30.711C155.675 30.6337 156.687 30.595 157.399 30.595C158.228 30.595 159.393 30.6143 160.896 30.653C161.378 30.6723 161.888 30.682 162.428 30.682C162.659 30.682 162.803 30.74 162.861 30.856C162.919 30.972 162.938 31.0977 162.919 31.233C162.919 31.349 162.919 31.4263 162.919 31.465V31.784Z" fill="white"/>
</svg>
